# xmcd
#
# Track frame offsets: 
#        210
#        13111
#        28241
#        66273
#        95165
#        128222
#        164942
#        191410
#        204993
#        218917
#        233539
#        274268
#        288302
#
# Disc length: 4119 seconds
#
# Revision: 1
# Processed by: cddbd v1.5.2PL0 Copyright (c) Steve Scherf et al.
# Submitted via: ExactAudioCopy v1.3
#
DISCID=c810150d
DTITLE=Compilation - let's jazz em Publico
DYEAR=2005
DGENRE=Jazz
TTITLE0=Benny Goodman - Stompin' At The Savoy
TTITLE1=Louis Armstrong And The Allstars - When It's Sleepy Time Down 
TTITLE1=South
TTITLE2=Julian 'Cannonball' Adderley - One For Daddy-O
TTITLE3=Oliver Nelson - Yearnin'
TTITLE4=Roland Kirk Quartet - Mood Indigo
TTITLE5=John Coltrane - Afro-Blue
TTITLE6=Benny Golson Jazztet - Milano
TTITLE7=Charlie Parker Quartet - Confirmation
TTITLE8=J. J. Johnson - My Funny Valentine
TTITLE9=Wes Montgomery - West Coast Blues
TTITLE10=Buddy de Franco - Buddy's Blues
TTITLE11=Benny Carter - Long Ago (And Far Away)
TTITLE12=Bill Henderson - You Are My Sunshine
EXTD=YEAR: 2005
EXTT0=
EXTT1=
EXTT2=
EXTT3=
EXTT4=
EXTT5=
EXTT6=
EXTT7=
EXTT8=
EXTT9=
EXTT10=
EXTT11=
EXTT12=
PLAYORDER=
